<?xml version="1.0" standalone="no"?>
<!DOCTYPE svg PUBLIC "-//W3C//DTD SVG 20010904//EN"
 "http://www.w3.org/TR/2001/REC-SVG-20010904/DTD/svg10.dtd">
<svg version="1.0" xmlns="http://www.w3.org/2000/svg"
 width="1024.000000pt" height="1024.000000pt" viewBox="0 0 1024.000000 1024.000000"
 preserveAspectRatio="xMidYMid meet">

<g transform="translate(0.000000,1024.000000) scale(0.100000,-0.100000)"
fill="#000000" stroke="none">
<path d="M3670 7909 c-491 -43 -902 -303 -1147 -724 -83 -142 -146 -329 -175
-515 -10 -67 -13 -386 -13 -1495 0 -1410 0 -1410 22 -1531 54 -296 166 -531
350 -734 184 -203 372 -324 634 -410 232 -77 159 -74 1699 -78 899 -2 1419 0
1502 7 225 19 374 59 563 151 278 137 511 371 649 654 68 137 97 225 127 386
l24 125 0 1445 c0 1614 4 1514 -71 1739 -73 221 -198 415 -372 583 -251 240
-541 367 -910 398 -143 12 -2745 11 -2882 -1z m51 -882 c28 -15 55 -40 74 -70
l30 -47 285 0 285 0 20 38 c13 24 36 45 65 60 146 75 305 -82 230 -228 -63
-123 -247 -126 -304 -5 l-17 35 -279 0 -278 0 -31 -54 c-21 -38 -44 -63 -76
-81 l-45 -27 0 -384 0 -383 354 -3 354 -3 43 -30 c24 -17 57 -50 74 -74 l30
-43 3 -319 3 -319 1122 -2 c1051 -3 1124 -4 1154 -21 50 -27 103 -85 129 -141
24 -51 24 -54 24 -402 0 -403 -3 -425 -73 -501 -23 -26 -64 -57 -92 -69 l-50
-24 -777 0 -778 0 0 -259 c0 -143 -3 -266 -6 -275 -5 -14 -36 -16 -245 -16
-237 0 -238 0 -250 -22 -17 -33 -60 -78 -91 -94 -35 -18 -111 -18 -146 0 -35
18 -78 65 -87 94 l-6 22 -349 0 c-308 0 -349 2 -354 16 -3 9 -6 67 -6 130 l0
114 -37 0 c-48 0 -117 45 -125 81 -2 8 -9 20 -15 27 -10 10 -13 67 -13 211 0
189 1 200 23 231 32 48 71 73 123 80 l46 5 5 200 c2 110 1 210 -2 223 l-5 22
-323 0 c-363 0 -372 2 -436 75 -62 71 -61 66 -61 505 l0 401 25 48 c26 53 72
96 122 118 25 10 100 13 313 13 l280 0 0 389 0 389 -31 6 c-45 9 -114 81 -129
135 -46 170 141 312 301 228z m2860 -18 c51 -17 113 -68 145 -119 l29 -45 0
-520 0 -520 -29 -59 c-30 -60 -84 -109 -149 -133 -23 -8 -180 -12 -552 -12
l-520 -1 -50 24 c-52 24 -111 81 -142 138 -17 31 -18 70 -18 553 l0 520 28 47
c32 55 90 107 138 124 47 17 1070 19 1120 3z"/>
<path d="M3760 4495 l0 -225 45 0 c55 0 92 -18 132 -63 30 -34 48 -98 39 -142
-3 -11 -5 -86 -5 -166 -1 -134 -3 -149 -23 -179 -36 -52 -71 -73 -133 -78
l-55 -4 0 -79 c0 -68 2 -79 18 -81 46 -4 522 -5 555 0 27 3 41 11 47 26 9 24
54 68 88 85 28 15 99 16 133 3 31 -12 85 -65 94 -91 4 -15 20 -19 103 -24 53
-4 143 -7 198 -7 l102 0 5 33 c8 44 9 310 1 375 l-6 52 -347 0 c-343 0 -346 0
-396 24 -58 27 -94 63 -127 126 -23 44 -23 50 -23 340 l0 295 -222 3 -223 2 0
-225z"/>
<path d="M3818 3786 c-10 -7 -18 -22 -18 -33 0 -10 -4 -23 -9 -28 -13 -15 -24
-68 -11 -60 5 3 10 1 10 -5 0 -13 43 -8 83 10 27 13 37 30 17 30 -21 0 -9 27
17 39 23 11 25 10 13 -3 -7 -10 -8 -16 -2 -16 18 0 24 19 13 37 -6 10 -11 14
-11 8 0 -5 -5 -3 -11 5 -9 13 -10 13 -6 -2 7 -20 -20 -33 -39 -18 -7 6 -11 20
-9 31 4 22 -12 24 -37 5z"/>
<path d="M3570 3684 c0 -15 32 -34 59 -34 21 0 31 5 31 16 0 8 -4 13 -9 10 -5
-4 -12 0 -15 6 -5 10 -7 10 -12 1 -4 -8 -13 -9 -30 -3 -13 5 -24 7 -24 4z"/>
</g>
</svg>
